<svg width="150" height="26" viewBox="0 0 150 26" fill="none" xmlns="http://www.w3.org/2000/svg">
<path fill-rule="evenodd" clip-rule="evenodd" d="M20.3587 22.8832C20.9055 22.1957 21.9055 22.1019 22.593 22.6488C23.2805 23.1957 23.3743 24.1957 22.8274 24.8832C22.2805 25.5707 21.2805 25.6644 20.593 25.1175C19.9212 24.5707 19.8118 23.5707 20.3587 22.8832Z" fill="#033143"/>
<path d="M21.5782 24.3575C21.4376 24.3575 21.3126 24.2794 21.2501 24.1544L19.5157 20.4044C19.4376 20.2325 19.5157 20.0138 19.6876 19.9356C19.8595 19.8575 20.0782 19.9356 20.1563 20.1075L21.8907 23.8575C21.9688 24.0294 21.8907 24.2481 21.7188 24.3262C21.6719 24.3575 21.6251 24.3575 21.5782 24.3575Z" fill="#033143"/>
<path d="M3.35936 10.7724C5.21469 10.7724 6.71872 9.2684 6.71872 7.41307C6.71872 5.55775 5.21469 4.05371 3.35936 4.05371C1.50404 4.05371 0 5.55775 0 7.41307C0 9.2684 1.50404 10.7724 3.35936 10.7724Z" fill="#033143"/>
<path d="M40.0005 0.538084C40.9224 0.381835 41.8911 0.272459 42.9067 0.209959C43.9223 0.147459 45.1098 0.116211 46.4848 0.116211C47.7817 0.116211 48.9848 0.225586 50.1098 0.42871C51.2348 0.631834 52.2036 0.991207 53.0473 1.50683C53.8754 2.02245 54.5317 2.69433 55.0004 3.5537C55.4692 4.41307 55.7192 5.49119 55.7192 6.77244C55.7192 7.83493 55.5004 8.81931 55.0786 9.72555C54.6567 10.6318 54.1098 11.3505 53.4692 11.8818C53.9536 12.0849 54.4223 12.3662 54.8911 12.6943C55.3598 13.0224 55.7661 13.4443 56.1254 13.9599C56.4848 14.4755 56.7817 15.0693 57.016 15.7412C57.2504 16.4287 57.3598 17.1943 57.3598 18.0536C57.3598 19.5849 57.0785 20.8349 56.5317 21.8193C55.9692 22.8036 55.2192 23.5693 54.2661 24.1318C53.3129 24.6943 52.2036 25.0693 50.9536 25.288C49.7036 25.5068 48.3911 25.6161 47.0005 25.6161C46.0317 25.6161 44.9692 25.5849 43.8286 25.5224C42.688 25.4599 41.4224 25.3505 40.0317 25.1943V0.538084H40.0005ZM46.7973 10.2412C47.8442 10.2881 48.688 10.1005 49.3598 9.67868C50.0317 9.2568 50.3598 8.45993 50.3598 7.28806C50.3598 6.70994 50.2504 6.24119 50.0473 5.88182C49.8442 5.52244 49.563 5.24119 49.2348 5.03807C48.9067 4.83495 48.5317 4.69432 48.1255 4.61619C47.7192 4.55369 47.3286 4.50682 46.9223 4.50682C46.688 4.50682 46.4848 4.50682 46.2973 4.50682C46.1098 4.50682 45.9067 4.52245 45.6723 4.56932V10.1943L46.7973 10.2412ZM45.688 20.788C46.0161 20.8349 46.3442 20.8661 46.6723 20.8818C47.0005 20.8974 47.2973 20.8974 47.563 20.8974C47.9848 20.8974 48.438 20.8505 48.9223 20.7724C49.4067 20.6943 49.8442 20.538 50.2348 20.3036C50.6254 20.0693 50.9536 19.7568 51.2192 19.3505C51.4848 18.9443 51.6254 18.413 51.6254 17.7412C51.6254 17.1162 51.5161 16.6162 51.3129 16.2099C51.1098 15.8193 50.8129 15.5068 50.4379 15.288C50.0629 15.0693 49.6254 14.913 49.1098 14.8193C48.5942 14.7255 48.0005 14.6787 47.3598 14.6787H45.688V20.788Z" fill="#04A9F5"/>
<path d="M66.2505 7.13474V25.2441H61.0161V12.7285L61.188 11.4785H58.2036L60.563 7.15037H66.2505V7.13474ZM66.1098 5.63475H60.9067V0.916016H66.1098V5.63475Z" fill="#04A9F5"/>
<path d="M112.531 7.13474V25.2441H107.297V12.7285L107.469 11.4785H104.484L106.844 7.15037H112.531V7.13474ZM112.406 5.63475H107.203V0.916016H112.406V5.63475Z" fill="#033143"/>
<path d="M76.0317 20.6953H83.9692V25.2421H69.2974V21.3203C70.063 20.4609 70.7349 19.7109 71.3286 19.0546C71.9224 18.3984 72.5786 17.664 73.2817 16.8671C74.0005 16.0703 74.688 15.3047 75.3598 14.5547C76.0317 13.8203 76.6255 13.1484 77.1567 12.539C77.688 11.9453 78.0786 11.5078 78.3286 11.2578L77.7661 11.4297H73.7348V13.3359L69.4067 12.0234V7.13281H83.7348V11.2265L76.0317 20.6953Z" fill="#04A9F5"/>
<path fill-rule="evenodd" clip-rule="evenodd" d="M16.2351 19.4945C18.5633 19.807 20.7351 18.1351 20.9695 15.7132C21.2195 13.1976 19.3601 11.2445 17.0945 11.0414C14.9226 10.8383 12.6414 12.3695 12.4695 15.1039C12.3445 17.182 13.8758 19.2445 16.2351 19.4945Z" fill="#04A9F5"/>
<path d="M11.1593 12.649C11.0968 12.649 11.0343 12.6334 10.9718 12.6021L3.73741 8.28965C3.56554 8.1959 3.51866 7.97716 3.61241 7.80528C3.70616 7.63341 3.92491 7.58653 4.09679 7.68028L11.3468 11.9771C11.5186 12.0709 11.5655 12.2896 11.4718 12.4615C11.4093 12.5865 11.2843 12.649 11.1593 12.649Z" fill="#033143"/>
<path fill-rule="evenodd" clip-rule="evenodd" d="M9.04587 21.3086C10.3271 21.5898 11.1396 22.8398 10.8584 24.1211C10.5771 25.4023 9.32712 26.2148 8.04588 25.9336C6.76463 25.6523 5.95213 24.4023 6.23338 23.1211C6.51463 21.8398 7.76463 21.0273 9.04587 21.3086Z" fill="#033143"/>
<path d="M7.96932 24.1231C7.87557 24.1231 7.79745 24.0919 7.71932 24.0294C7.5787 23.8887 7.5787 23.67 7.7037 23.5294L11.8131 19.2325C11.9537 19.0919 12.1724 19.0919 12.3131 19.2169C12.4537 19.3575 12.4537 19.5763 12.3287 19.7169L8.23495 24.0137C8.15682 24.0762 8.06307 24.1231 7.96932 24.1231Z" fill="#033143"/>
<path d="M19.0947 6.44921C20.1475 6.44921 21.001 5.59575 21.001 4.54296C21.001 3.49017 20.1475 2.63672 19.0947 2.63672C18.0419 2.63672 17.1885 3.49017 17.1885 4.54296C17.1885 5.59575 18.0419 6.44921 19.0947 6.44921Z" fill="#033143"/>
<path d="M18.0775 10.0585C18.0619 10.0585 18.0307 10.0585 17.9994 10.0585C17.8119 10.0116 17.6869 9.8241 17.7182 9.6366L18.8432 4.08975C18.89 3.90225 19.0775 3.77725 19.265 3.8085C19.4525 3.85537 19.5775 4.04287 19.5463 4.23037L18.4213 9.77722C18.39 9.9491 18.2494 10.0585 18.0775 10.0585Z" fill="#033143"/>
<path fill-rule="evenodd" clip-rule="evenodd" d="M25.9675 15.1042C24.9832 13.823 25.2332 11.9949 26.5144 11.0105C27.7957 10.0261 29.6238 10.2761 30.6082 11.5574C31.5925 12.8386 31.3425 14.6668 30.0613 15.6511C28.78 16.6199 26.9519 16.3855 25.9675 15.1042Z" fill="#033143"/>
<path d="M22.5939 14.9493C22.422 14.9493 22.2814 14.84 22.2501 14.6681C22.2032 14.4806 22.3282 14.2931 22.5157 14.2462L28.0626 13.0587C28.2501 13.0118 28.4376 13.1368 28.4845 13.3243C28.5313 13.5118 28.4063 13.6993 28.2189 13.7462L22.672 14.9337C22.6407 14.9493 22.6251 14.9493 22.5939 14.9493Z" fill="#033143"/>
<path d="M84.5449 1.02539H89.9512L95.0293 17.8691L100.154 1.02539H105.56L97.6699 25.3847H92.4199L84.5449 1.02539Z" fill="#033143"/>
<path d="M116.374 1.18359L121.358 0.0117188V6.16795C121.937 6.0117 122.827 5.93357 124.015 5.93357C129.108 5.93357 131.655 8.63669 131.655 14.0273V17.2929C131.655 22.6991 129.108 25.4022 124.015 25.4022C120.374 25.4022 117.827 24.996 116.374 24.1835V1.18359ZM126.671 14.0117C126.671 11.8085 125.78 10.6992 124.015 10.6992C123.468 10.6992 122.968 10.7148 122.53 10.7461C122.093 10.7773 121.702 10.8242 121.343 10.8867V20.4179C121.702 20.4804 122.093 20.5273 122.53 20.5585C122.968 20.5898 123.452 20.6054 124.015 20.6054C125.796 20.6054 126.671 19.496 126.671 17.2773V14.0117Z" fill="#033143"/>
<path d="M134.031 14.8476C134.031 8.91014 136.75 5.92578 142.187 5.92578C147.391 5.92578 150 8.89452 150 14.8476C150 16.9726 149.453 18.0351 148.375 18.0351H139.016C139.016 19.7539 139.906 20.6132 141.672 20.6132C143.859 20.6132 145.859 20.2851 147.672 19.6289L148.609 24.0507C146.969 24.9413 144.656 25.3945 141.672 25.3945C136.578 25.3945 134.031 22.4257 134.031 16.4726V14.8476V14.8476ZM145.016 13.4414C145.016 11.6133 144.078 10.707 142.187 10.707C140.062 10.707 139.016 11.6133 139.016 13.4414H145.016Z" fill="#033143"/>
</svg>